  0
SECTION
  2
HEADER
  9
$ACADVER
  1
AC1018
  9
$ACADMAINTVER
 70
0
  9
$DWGCODEPAGE
  3
ANSI_1252
  9
$LASTSAVEDBY
  1
ezdxf
  9
$INSBASE
 10
0.0
 20
0.0
 30
0.0
  9
$EXTMIN
 10
1e+20
 20
1e+20
 30
1e+20
  9
$EXTMAX
 10
-1e+20
 20
-1e+20
 30
-1e+20
  9
$LIMMIN
 10
0.0
 20
0.0
  9
$LIMMAX
 10
420.0
 20
297.0
  9
$ORTHOMODE
 70
0
  9
$REGENMODE
 70
1
  9
$FILLMODE
 70
1
  9
$QTEXTMODE
 70
0
  9
$MIRRTEXT
 70
1
  9
$LTSCALE
 40
1.0
  9
$ATTMODE
 70
1
  9
$TEXTSIZE
 40
2.5
  9
$TRACEWID
 40
1.0
  9
$TEXTSTYLE
  7
Standard
  9
$CLAYER
  8
0
  9
$CELTYPE
  6
ByLayer
  9
$CECOLOR
 62
256
  9
$CELTSCALE
 40
1.0
  9
$DISPSILH
 70
0
  9
$DIMSCALE
 40
1.0
  9
$DIMASZ
 40
2.5
  9
$DIMEXO
 40
0.625
  9
$DIMDLI
 40
3.75
  9
$DIMRND
 40
0.0
  9
$DIMDLE
 40
0.0
  9
$DIMEXE
 40
1.25
  9
$DIMTP
 40
0.0
  9
$DIMTM
 40
0.0
  9
$DIMTXT
 40
2.5
  9
$DIMCEN
 40
2.5
  9
$DIMTSZ
 40
0.0
  9
$DIMTOL
 70
0
  9
$DIMLIM
 70
0
  9
$DIMTIH
 70
0
  9
$DIMTOH
 70
0
  9
$DIMSE1
 70
0
  9
$DIMSE2
 70
0
  9
$DIMTAD
 70
1
  9
$DIMZIN
 70
8
  9
$DIMBLK
  1

  9
$DIMASO
 70
1
  9
$DIMSHO
 70
1
  9
$DIMPOST
  1

  9
$DIMAPOST
  1

  9
$DIMALT
 70
0
  9
$DIMALTD
 70
3
  9
$DIMALTF
 40
0.03937007874
  9
$DIMLFAC
 40
1.0
  9
$DIMTOFL
 70
1
  9
$DIMTVP
 40
0.0
  9
$DIMTIX
 70
0
  9
$DIMSOXD
 70
0
  9
$DIMSAH
 70
0
  9
$DIMBLK1
  1

  9
$DIMBLK2
  1

  9
$DIMSTYLE
  2
ISO-25
  9
$DIMCLRD
 70
0
  9
$DIMCLRE
 70
0
  9
$DIMCLRT
 70
0
  9
$DIMTFAC
 40
1.0
  9
$DIMGAP
 40
0.625
  9
$DIMJUST
 70
0
  9
$DIMSD1
 70
0
  9
$DIMSD2
 70
0
  9
$DIMTOLJ
 70
0
  9
$DIMTZIN
 70
8
  9
$DIMALTZ
 70
0
  9
$DIMALTTZ
 70
0
  9
$DIMUPT
 70
0
  9
$DIMDEC
 70
2
  9
$DIMTDEC
 70
2
  9
$DIMALTU
 70
2
  9
$DIMALTTD
 70
3
  9
$DIMTXSTY
  7
Standard
  9
$DIMAUNIT
 70
0
  9
$DIMADEC
 70
0
  9
$DIMALTRND
 40
0.0
  9
$DIMAZIN
 70
0
  9
$DIMDSEP
 70
44
  9
$DIMATFIT
 70
3
  9
$DIMFRAC
 70
0
  9
$DIMLDRBLK
  1

  9
$DIMLUNIT
 70
2
  9
$DIMLWD
 70
-2
  9
$DIMLWE
 70
-2
  9
$DIMTMOVE
 70
0
  9
$LUNITS
 70
2
  9
$LUPREC
 70
4
  9
$SKETCHINC
 40
1.0
  9
$FILLETRAD
 40
10.0
  9
$AUNITS
 70
0
  9
$AUPREC
 70
2
  9
$MENU
  1
.
  9
$ELEVATION
 40
0.0
  9
$PELEVATION
 40
0.0
  9
$THICKNESS
 40
0.0
  9
$LIMCHECK
 70
0
  9
$CHAMFERA
 40
0.0
  9
$CHAMFERB
 40
0.0
  9
$CHAMFERC
 40
0.0
  9
$CHAMFERD
 40
0.0
  9
$SKPOLY
 70
0
  9
$TDCREATE
 40
2461162.015289352
  9
$TDUCREATE
 40
2458532.153996898
  9
$TDUPDATE
 40
2461162.015289352
  9
$TDUUPDATE
 40
2458532.1544311
  9
$TDINDWG
 40
0.0
  9
$TDUSRTIMER
 40
0.0
  9
$USRTIMER
 70
1
  9
$ANGBASE
 50
0.0
  9
$ANGDIR
 70
0
  9
$PDMODE
 70
0
  9
$PDSIZE
 40
0.0
  9
$PLINEWID
 40
0.0
  9
$SPLFRAME
 70
0
  9
$SPLINETYPE
 70
6
  9
$SPLINESEGS
 70
8
  9
$HANDSEED
  5
DC
  9
$SURFTAB1
 70
6
  9
$SURFTAB2
 70
6
  9
$SURFTYPE
 70
6
  9
$SURFU
 70
6
  9
$SURFV
 70
6
  9
$UCSBASE
  2

  9
$UCSNAME
  2

  9
$UCSORG
 10
0.0
 20
0.0
 30
0.0
  9
$UCSXDIR
 10
1.0
 20
0.0
 30
0.0
  9
$UCSYDIR
 10
0.0
 20
1.0
 30
0.0
  9
$UCSORTHOREF
  2

  9
$UCSORTHOVIEW
 70
0
  9
$UCSORGTOP
 10
0.0
 20
0.0
 30
0.0
  9
$UCSORGBOTTOM
 10
0.0
 20
0.0
 30
0.0
  9
$UCSORGLEFT
 10
0.0
 20
0.0
 30
0.0
  9
$UCSORGRIGHT
 10
0.0
 20
0.0
 30
0.0
  9
$UCSORGFRONT
 10
0.0
 20
0.0
 30
0.0
  9
$UCSORGBACK
 10
0.0
 20
0.0
 30
0.0
  9
$PUCSBASE
  2

  9
$PUCSNAME
  2

  9
$PUCSORG
 10
0.0
 20
0.0
 30
0.0
  9
$PUCSXDIR
 10
1.0
 20
0.0
 30
0.0
  9
$PUCSYDIR
 10
0.0
 20
1.0
 30
0.0
  9
$PUCSORTHOREF
  2

  9
$PUCSORTHOVIEW
 70
0
  9
$PUCSORGTOP
 10
0.0
 20
0.0
 30
0.0
  9
$PUCSORGBOTTOM
 10
0.0
 20
0.0
 30
0.0
  9
$PUCSORGLEFT
 10
0.0
 20
0.0
 30
0.0
  9
$PUCSORGRIGHT
 10
0.0
 20
0.0
 30
0.0
  9
$PUCSORGFRONT
 10
0.0
 20
0.0
 30
0.0
  9
$PUCSORGBACK
 10
0.0
 20
0.0
 30
0.0
  9
$USERI1
 70
0
  9
$USERI2
 70
0
  9
$USERI3
 70
0
  9
$USERI4
 70
0
  9
$USERI5
 70
0
  9
$USERR1
 40
0.0
  9
$USERR2
 40
0.0
  9
$USERR3
 40
0.0
  9
$USERR4
 40
0.0
  9
$USERR5
 40
0.0
  9
$WORLDVIEW
 70
1
  9
$SHADEDGE
 70
3
  9
$SHADEDIF
 70
70
  9
$TILEMODE
 70
1
  9
$MAXACTVP
 70
64
  9
$PINSBASE
 10
0.0
 20
0.0
 30
0.0
  9
$PLIMCHECK
 70
0
  9
$PEXTMIN
 10
1e+20
 20
1e+20
 30
1e+20
  9
$PEXTMAX
 10
-1e+20
 20
-1e+20
 30
-1e+20
  9
$PLIMMIN
 10
0.0
 20
0.0
  9
$PLIMMAX
 10
420.0
 20
297.0
  9
$UNITMODE
 70
0
  9
$VISRETAIN
 70
1
  9
$PLINEGEN
 70
0
  9
$PSLTSCALE
 70
1
  9
$TREEDEPTH
 70
3020
  9
$CMLSTYLE
  2
Standard
  9
$CMLJUST
 70
0
  9
$CMLSCALE
 40
20.0
  9
$PROXYGRAPHICS
 70
1
  9
$MEASUREMENT
 70
1
  9
$CELWEIGHT
370
-1
  9
$ENDCAPS
280
0
  9
$JOINSTYLE
280
0
  9
$LWDISPLAY
290
1
  9
$INSUNITS
 70
4
  9
$HYPERLINKBASE
  1

  9
$STYLESHEET
  1

  9
$XEDIT
290
1
  9
$CEPSNTYPE
380
0
  9
$PSTYLEMODE
290
1
  9
$FINGERPRINTGUID
  2
{AEA39A40-05FE-4D56-AF56-D40AB2589083}
  9
$VERSIONGUID
  2
{BBCE4DBA-9919-49AD-BD90-1F58BB864F98}
  9
$EXTNAMES
290
1
  9
$PSVPSCALE
 40
0.0
  9
$OLESTARTUP
290
0
  9
$SORTENTS
280
127
  9
$INDEXCTL
280
0
  9
$HIDETEXT
280
1
  9
$XCLIPFRAME
290
1
  9
$HALOGAP
280
0
  9
$OBSCOLOR
 70
257
  9
$OBSLTYPE
280
0
  9
$INTERSECTIONDISPLAY
280
0
  9
$INTERSECTIONCOLOR
 70
257
  9
$DIMASSOC
280
2
  9
$PROJECTNAME
  1

  0
ENDSEC
  0
SECTION
  2
CLASSES
  0
CLASS
  1
ACDBDICTIONARYWDFLT
  2
AcDbDictionaryWithDefault
  3
ObjectDBX Classes
 90
0
 91
0
280
0
281
0
  0
CLASS
  1
SUN
  2
AcDbSun
  3
SCENEOE
 90
1153
 91
0
280
0
281
0
  0
CLASS
  1
VISUALSTYLE
  2
AcDbVisualStyle
  3
ObjectDBX Classes
 90
4095
 91
0
280
0
281
0
  0
CLASS
  1
MATERIAL
  2
AcDbMaterial
  3
ObjectDBX Classes
 90
1153
 91
0
280
0
281
0
  0
CLASS
  1
SCALE
  2
AcDbScale
  3
ObjectDBX Classes
 90
1153
 91
0
280
0
281
0
  0
CLASS
  1
TABLESTYLE
  2
AcDbTableStyle
  3
ObjectDBX Classes
 90
4095
 91
0
280
0
281
0
  0
CLASS
  1
MLEADERSTYLE
  2
AcDbMLeaderStyle
  3
ACDB_MLEADERSTYLE_CLASS
 90
4095
 91
0
280
0
281
0
  0
CLASS
  1
DICTIONARYVAR
  2
AcDbDictionaryVar
  3
ObjectDBX Classes
 90
0
 91
0
280
0
281
0
  0
CLASS
  1
CELLSTYLEMAP
  2
AcDbCellStyleMap
  3
ObjectDBX Classes
 90
1152
 91
0
280
0
281
0
  0
CLASS
  1
MENTALRAYRENDERSETTINGS
  2
AcDbMentalRayRenderSettings
  3
SCENEOE
 90
1024
 91
0
280
0
281
0
  0
CLASS
  1
ACDBDETAILVIEWSTYLE
  2
AcDbDetailViewStyle
  3
ObjectDBX Classes
 90
1025
 91
0
280
0
281
0
  0
CLASS
  1
ACDBSECTIONVIEWSTYLE
  2
AcDbSectionViewStyle
  3
ObjectDBX Classes
 90
1025
 91
0
280
0
281
0
  0
CLASS
  1
RASTERVARIABLES
  2
AcDbRasterVariables
  3
ISM
 90
0
 91
0
280
0
281
0
  0
CLASS
  1
ACDBPLACEHOLDER
  2
AcDbPlaceHolder
  3
ObjectDBX Classes
 90
0
 91
0
280
0
281
0
  0
CLASS
  1
LAYOUT
  2
AcDbLayout
  3
ObjectDBX Classes
 90
0
 91
0
280
0
281
0
  0
ENDSEC
  0
SECTION
  2
TABLES
  0
TABLE
  2
VPORT
  5
8
330
0
100
AcDbSymbolTable
 70
1
  0
VPORT
  5
23
330
8
100
AcDbSymbolTableRecord
100
AcDbViewportTableRecord
  2
*Active
 70
0
 10
0.0
 20
0.0
 11
1.0
 21
1.0
 12
0.0
 22
0.0
 13
0.0
 23
0.0
 14
0.5
 24
0.5
 15
0.5
 25
0.5
 16
0.0
 26
0.0
 36
1.0
 17
0.0
 27
0.0
 37
0.0
 40
1000.0
 41
1.34
 42
50.0
 43
0.0
 44
0.0
 50
0.0
 51
0.0
 71
0
 72
1000
 73
1
 74
3
 75
0
 76
0
 77
0
 78
0
281
0
 65
0
146
0.0
  0
ENDTAB
  0
TABLE
  2
LTYPE
  5
2
330
0
100
AcDbSymbolTable
 70
10
  0
LTYPE
  5
24
330
2
100
AcDbSymbolTableRecord
100
AcDbLinetypeTableRecord
  2
ByBlock
 70
0
  3

 72
65
 73
0
 40
0.0
  0
LTYPE
  5
25
330
2
100
AcDbSymbolTableRecord
100
AcDbLinetypeTableRecord
  2
ByLayer
 70
0
  3

 72
65
 73
0
 40
0.0
  0
LTYPE
  5
26
330
2
100
AcDbSymbolTableRecord
100
AcDbLinetypeTableRecord
  2
Continuous
 70
0
  3

 72
65
 73
0
 40
0.0
  0
LTYPE
  5
2F
330
2
100
AcDbSymbolTableRecord
100
AcDbLinetypeTableRecord
  2
THIN
 70
0
  3
THIN
 72
65
 73
0
 40
0.0
  0
LTYPE
  5
30
330
2
100
AcDbSymbolTableRecord
100
AcDbLinetypeTableRecord
  2
WAVES
 70
0
  3
WAVES
 72
65
 73
0
 40
0.0
  0
LTYPE
  5
31
330
2
100
AcDbSymbolTableRecord
100
AcDbLinetypeTableRecord
  2
ZIGZAG
 70
0
  3
ZIGZAG
 72
65
 73
0
 40
0.0
  0
LTYPE
  5
32
330
2
100
AcDbSymbolTableRecord
100
AcDbLinetypeTableRecord
  2
HIDDEN
 70
0
  3
HIDDEN
 72
65
 73
2
 40
7.0
 49
5.0
 74
0
 49
-2.0
 74
0
  0
LTYPE
  5
33
330
2
100
AcDbSymbolTableRecord
100
AcDbLinetypeTableRecord
  2
CENTER2
 70
0
  3
CENTER2
 72
65
 73
4
 40
8.0
 49
5.0
 74
0
 49
-1.0
 74
0
 49
1.0
 74
0
 49
-1.0
 74
0
  0
LTYPE
  5
34
330
2
100
AcDbSymbolTableRecord
100
AcDbLinetypeTableRecord
  2
CENTER
 70
0
  3
CENTER
 72
65
 73
4
 40
19.0
 49
15.0
 74
0
 49
-1.5
 74
0
 49
1.0
 74
0
 49
-1.5
 74
0
  0
LTYPE
  5
35
330
2
100
AcDbSymbolTableRecord
100
AcDbLinetypeTableRecord
  2
PHANTOM
 70
0
  3
PHANTOM
 72
65
 73
6
 40
20.0
 49
15.0
 74
0
 49
-1.0
 74
0
 49
1.0
 74
0
 49
-1.0
 74
0
 49
1.0
 74
0
 49
-1.0
 74
0
  0
ENDTAB
  0
TABLE
  2
LAYER
  5
1
330
0
100
AcDbSymbolTable
 70
2
  0
LAYER
  5
27
330
1
100
AcDbSymbolTableRecord
100
AcDbLayerTableRecord
  2
0
 70
0
 62
7
  6
Continuous
370
-3
390
13
  0
LAYER
  5
28
330
1
100
AcDbSymbolTableRecord
100
AcDbLayerTableRecord
  2
Defpoints
 70
0
 62
7
  6
Continuous
290
0
370
-3
390
13
  0
ENDTAB
  0
TABLE
  2
STYLE
  5
5
330
0
100
AcDbSymbolTable
 70
1
  0
STYLE
  5
29
330
5
100
AcDbSymbolTableRecord
100
AcDbTextStyleTableRecord
  2
Standard
 70
0
 40
0.0
 41
1.0
 50
0.0
 71
0
 42
2.5
  3
txt
  4

  0
ENDTAB
  0
TABLE
  2
VIEW
  5
7
330
0
100
AcDbSymbolTable
 70
0
  0
ENDTAB
  0
TABLE
  2
UCS
  5
6
330
0
100
AcDbSymbolTable
 70
0
  0
ENDTAB
  0
TABLE
  2
APPID
  5
3
330
0
100
AcDbSymbolTable
 70
3
  0
APPID
  5
2A
330
3
100
AcDbSymbolTableRecord
100
AcDbRegAppTableRecord
  2
ACAD
 70
0
  0
APPID
  5
D9
330
3
100
AcDbSymbolTableRecord
100
AcDbRegAppTableRecord
  2
HATCHBACKGROUNDCOLOR
 70
0
  0
APPID
  5
DA
330
3
100
AcDbSymbolTableRecord
100
AcDbRegAppTableRecord
  2
EZDXF
 70
0
  0
ENDTAB
  0
TABLE
  2
DIMSTYLE
  5
4
330
0
100
AcDbSymbolTable
 70
5
100
AcDbDimStyleTable
  0
DIMSTYLE
105
2B
330
4
100
AcDbSymbolTableRecord
100
AcDbDimStyleTableRecord
  2
Standard
 70
0
  3

  4

 40
1.0
 41
2.5
 42
0.625
 43
3.75
 44
1.25
 45
0.0
 46
0.0
 47
0.0
 48
0.0
140
2.5
141
2.5
142
0.0
143
0.03937007874
144
1.0
145
0.0
146
1.0
147
0.625
148
0.0
 71
0
 72
0
 73
0
 74
0
 75
0
 76
0
 77
1
 78
8
 79
3
170
0
171
3
172
1
173
0
174
0
175
0
176
0
177
0
178
0
179
2
271
2
272
2
273
2
274
3
275
0
276
0
277
2
278
44
279
0
280
0
281
0
282
0
283
0
284
8
285
0
286
0
288
0
289
3
371
-2
372
-2
  0
DIMSTYLE
105
36
330
4
100
AcDbSymbolTableRecord
100
AcDbDimStyleTableRecord
  2
MP_GOST_DEFAULT
 70
0
  3

  4

 40
1.0
 41
5.0
 42
1.0
 43
3.75
 44
2.0
 45
0.0
 46
0.0
 47
0.0
 48
0.0
140
5.0
141
2.5
142
0.0
143
0.03937007874
144
1.0
145
0.0
146
1.0
147
3.0
148
0.0
 71
0
 72
0
 73
0
 74
0
 75
0
 76
0
 77
1
 78
8
 79
3
170
0
171
3
172
1
173
0
174
0
175
0
176
250
177
250
178
250
179
2
271
2
272
2
273
2
274
3
275
0
276
0
277
2
278
44
279
0
280
0
281
0
282
0
283
0
284
8
285
0
286
0
288
0
289
3
371
-2
372
-2
  0
DIMSTYLE
105
37
330
4
100
AcDbSymbolTableRecord
100
AcDbDimStyleTableRecord
  2
MP_GOST_DEFAULT_DIAMETER
 70
0
  3

  4

 40
1.0
 41
5.0
 42
1.0
 43
3.75
 44
2.0
 45
0.0
 46
0.0
 47
0.0
 48
0.0
140
5.0
141
2.5
142
0.0
143
0.03937007874
144
1.0
145
0.0
146
1.0
147
3.0
148
0.0
 71
0
 72
0
 73
0
 74
0
 75
0
 76
0
 77
1
 78
8
 79
3
170
0
171
3
172
1
173
0
174
1
175
0
176
250
177
250
178
250
179
2
271
2
272
2
273
2
274
3
275
0
276
0
277
2
278
44
279
0
280
0
281
0
282
0
283
0
284
8
285
0
286
0
288
0
289
0
371
-2
372
-2
  0
DIMSTYLE
105
38
330
4
100
AcDbSymbolTableRecord
100
AcDbDimStyleTableRecord
  2
MP_USER_CUSTOM
 70
0
  3

  4

 40
1.0
 41
5.0
 42
1.0
 43
3.75
 44
2.0
 45
0.0
 46
0.0
 47
0.0
 48
0.0
140
5.0
141
2.5
142
0.0
143
0.03937007874
144
1.0
145
0.0
146
1.0
147
3.0
148
0.0
 71
0
 72
0
 73
0
 74
0
 75
0
 76
0
 77
1
 78
8
 79
3
170
0
171
3
172
1
173
0
174
0
175
0
176
250
177
250
178
250
179
2
271
2
272
2
273
2
274
3
275
0
276
0
277
2
278
44
279
0
280
0
281
0
282
0
283
0
284
8
285
0
286
0
288
0
289
3
371
-2
372
-2
  0
DIMSTYLE
105
39
330
4
100
AcDbSymbolTableRecord
100
AcDbDimStyleTableRecord
  2
MP_USER_CUSTOM_DIAMETER
 70
0
  3

  4

 40
1.0
 41
5.0
 42
1.0
 43
3.75
 44
2.0
 45
0.0
 46
0.0
 47
0.0
 48
0.0
140
5.0
141
2.5
142
0.0
143
0.03937007874
144
1.0
145
0.0
146
1.0
147
3.0
148
0.0
 71
0
 72
0
 73
0
 74
0
 75
0
 76
0
 77
1
 78
8
 79
3
170
0
171
3
172
1
173
0
174
1
175
0
176
250
177
250
178
250
179
2
271
2
272
2
273
2
274
3
275
0
276
0
277
2
278
44
279
0
280
0
281
0
282
0
283
0
284
8
285
0
286
0
288
0
289
0
371
-2
372
-2
  0
ENDTAB
  0
TABLE
  2
BLOCK_RECORD
  5
9
330
0
100
AcDbSymbolTable
 70
12
  0
BLOCK_RECORD
  5
17
330
9
100
AcDbSymbolTableRecord
100
AcDbBlockTableRecord
  2
*Model_Space
340
1A
  0
BLOCK_RECORD
  5
1B
330
9
100
AcDbSymbolTableRecord
100
AcDbBlockTableRecord
  2
*Paper_Space
340
1E
  0
BLOCK_RECORD
  5
5A
330
9
100
AcDbSymbolTableRecord
100
AcDbBlockTableRecord
  2
*D1
340
0
  0
BLOCK_RECORD
  5
5F
330
9
100
AcDbSymbolTableRecord
100
AcDbBlockTableRecord
  2
_CLOSEDFILLED
340
0
  0
BLOCK_RECORD
  5
6E
330
9
100
AcDbSymbolTableRecord
100
AcDbBlockTableRecord
  2
*D2
340
0
  0
BLOCK_RECORD
  5
7E
330
9
100
AcDbSymbolTableRecord
100
AcDbBlockTableRecord
  2
*D3
340
0
  0
BLOCK_RECORD
  5
8A
330
9
100
AcDbSymbolTableRecord
100
AcDbBlockTableRecord
  2
*D4
340
0
  0
BLOCK_RECORD
  5
94
330
9
100
AcDbSymbolTableRecord
100
AcDbBlockTableRecord
  2
*D5
340
0
  0
BLOCK_RECORD
  5
A0
330
9
100
AcDbSymbolTableRecord
100
AcDbBlockTableRecord
  2
*D6
340
0
  0
BLOCK_RECORD
  5
B0
330
9
100
AcDbSymbolTableRecord
100
AcDbBlockTableRecord
  2
*D7
340
0
  0
BLOCK_RECORD
  5
C0
330
9
100
AcDbSymbolTableRecord
100
AcDbBlockTableRecord
  2
*D8
340
0
  0
BLOCK_RECORD
  5
D0
330
9
100
AcDbSymbolTableRecord
100
AcDbBlockTableRecord
  2
*D9
340
0
  0
ENDTAB
  0
ENDSEC
  0
SECTION
  2
BLOCKS
  0
BLOCK
  5
18
330
17
100
AcDbEntity
  8
0
100
AcDbBlockBegin
  2
*Model_Space
 70
0
 10
0.0
 20
0.0
 30
0.0
  3
*Model_Space
  1

  0
ENDBLK
  5
19
330
17
100
AcDbEntity
  8
0
100
AcDbBlockEnd
  0
BLOCK
  5
1C
330
1B
100
AcDbEntity
  8
0
100
AcDbBlockBegin
  2
*Paper_Space
 70
0
 10
0.0
 20
0.0
 30
0.0
  3
*Paper_Space
  1

  0
ENDBLK
  5
1D
330
1B
100
AcDbEntity
  8
0
100
AcDbBlockEnd
  0
BLOCK
  5
5B
330
5A
100
AcDbEntity
  8
0
100
AcDbBlockBegin
  2
*D1
 70
1
 10
0.0
 20
0.0
 30
0.0
  3
*D1
  1

  0
LINE
  5
5D
330
5A
100
AcDbEntity
  8
0
 62
250
100
AcDbLine
 10
-38.35
 20
12.0
 30
0.0
 11
-52.21732331659686
 21
12.0
 31
0.0
  0
LINE
  5
5E
330
5A
100
AcDbEntity
  8
0
 62
250
100
AcDbLine
 10
-9.35
 20
24.8
 30
0.0
 11
-52.21732331659686
 21
24.8
 31
0.0
  0
INSERT
  5
63
330
5A
100
AcDbEntity
  8
0
 62
250
100
AcDbBlockReference
  2
_CLOSEDFILLED
 10
-50.21732331659686
 20
12.0
 30
0.0
 41
5.0
 42
5.0
 50
90.0
  0
INSERT
  5
65
330
5A
100
AcDbEntity
  8
0
 62
250
100
AcDbBlockReference
  2
_CLOSEDFILLED
 10
-50.21732331659686
 20
24.8
 30
0.0
 41
5.0
 42
5.0
 50
270.0
  0
LINE
  5
67
330
5A
100
AcDbEntity
  8
0
 62
250
100
AcDbLine
 10
-50.21732331659686
 20
7.0
 30
0.0
 11
-50.21732331659686
 21
2.0
 31
0.0
  0
LINE
  5
68
330
5A
100
AcDbEntity
  8
0
 62
250
100
AcDbLine
 10
-50.21732331659686
 20
29.8
 30
0.0
 11
-50.21732331659686
 21
34.8
 31
0.0
  0
MTEXT
  5
69
330
5A
100
AcDbEntity
  8
0
 62
250
100
AcDbMText
 10
-53.21732331659686
 20
18.4
 30
0.0
 40
5.0
 71
5
  1
12,8
 50
90.0
  0
POINT
  5
6A
330
5A
100
AcDbEntity
  8
Defpoints
100
AcDbPoint
 10
-50.21732331659686
 20
12.0
 30
0.0
  0
POINT
  5
6B
330
5A
100
AcDbEntity
  8
Defpoints
100
AcDbPoint
 10
-37.35
 20
12.0
 30
0.0
  0
POINT
  5
6C
330
5A
100
AcDbEntity
  8
Defpoints
100
AcDbPoint
 10
-8.35
 20
24.8
 30
0.0
  0
ENDBLK
  5
5C
330
5A
100
AcDbEntity
  8
0
100
AcDbBlockEnd
  0
BLOCK
  5
60
330
5F
100
AcDbEntity
  8
0
100
AcDbBlockBegin
  2
_CLOSEDFILLED
 70
0
 10
0.0
 20
0.0
 30
0.0
  3
_CLOSEDFILLED
  1

  0
SOLID
  5
62
330
5F
100
AcDbEntity
  8
0
  6
BYBLOCK
 62
0
100
AcDbTrace
 10
-1.0
 20
0.16439898372402537
 30
0.0
 11
0.0
 21
0.0
 31
0.0
 12
-1.0
 22
-0.16439898372402537
 32
0.0
 13
-1.0
 23
-0.16439898372402537
 33
0.0
  0
ENDBLK
  5
61
330
5F
100
AcDbEntity
  8
0
100
AcDbBlockEnd
  0
BLOCK
  5
6F
330
6E
100
AcDbEntity
  8
0
100
AcDbBlockBegin
  2
*D2
 70
1
 10
0.0
 20
0.0
 30
0.0
  3
*D2
  1

  0
LINE
  5
71
330
6E
100
AcDbEntity
  8
0
 62
250
100
AcDbLine
 10
-37.35
 20
11.0
 30
0.0
 11
-37.35
 21
-8.847132241336308
 31
0.0
  0
LINE
  5
72
330
6E
100
AcDbEntity
  8
0
 62
250
100
AcDbLine
 10
-8.35
 20
23.8
 30
0.0
 11
-8.35
 21
-8.847132241336308
 31
0.0
  0
INSERT
  5
73
330
6E
100
AcDbEntity
  8
0
 62
250
100
AcDbBlockReference
  2
_CLOSEDFILLED
 10
-37.35
 20
-6.847132241336308
 30
0.0
 41
5.0
 42
5.0
 50
180.0
  0
INSERT
  5
75
330
6E
100
AcDbEntity
  8
0
 62
250
100
AcDbBlockReference
  2
_CLOSEDFILLED
 10
-8.35
 20
-6.847132241336308
 30
0.0
 41
5.0
 42
5.0
  0
LINE
  5
77
330
6E
100
AcDbEntity
  8
0
 62
250
100
AcDbLine
 10
-32.35
 20
-6.8471322413363085
 30
0.0
 11
-27.85
 21
-6.8471322413363085
 31
0.0
  0
LINE
  5
78
330
6E
100
AcDbEntity
  8
0
 62
250
100
AcDbLine
 10
-17.85
 20
-6.847132241336308
 30
0.0
 11
-13.35
 21
-6.847132241336308
 31
0.0
  0
MTEXT
  5
79
330
6E
100
AcDbEntity
  8
0
 62
250
100
AcDbMText
 10
-22.85
 20
-9.847132241336308
 30
0.0
 40
5.0
 71
5
  1
29
  0
POINT
  5
7A
330
6E
100
AcDbEntity
  8
Defpoints
100
AcDbPoint
 10
-37.35
 20
-6.847132241336308
 30
0.0
  0
POINT
  5
7B
330
6E
100
AcDbEntity
  8
Defpoints
100
AcDbPoint
 10
-37.35
 20
12.0
 30
0.0
  0
POINT
  5
7C
330
6E
100
AcDbEntity
  8
Defpoints
100
AcDbPoint
 10
-8.35
 20
24.8
 30
0.0
  0
ENDBLK
  5
70
330
6E
100
AcDbEntity
  8
0
100
AcDbBlockEnd
  0
BLOCK
  5
7F
330
7E
100
AcDbEntity
  8
0
100
AcDbBlockBegin
  2
*D3
 70
1
 10
0.0
 20
0.0
 30
0.0
  3
*D3
  1

  0
INSERT
  5
81
330
7E
100
AcDbEntity
  8
0
 62
250
100
AcDbBlockReference
  2
_CLOSEDFILLED
 10
-114.99393878958878
 20
-33.10679981244601
 30
0.0
 41
5.0
 42
5.0
 50
-145.02529028057953
  0
INSERT
  5
83
330
7E
100
AcDbEntity
  8
0
 62
250
100
AcDbBlockReference
  2
_CLOSEDFILLED
 10
-70.74606121041123
 20
-2.1532001875539883
 30
0.0
 41
5.0
 42
5.0
 50
34.974709719420474
  0
LINE
  5
85
330
7E
100
AcDbEntity
  8
0
 62
250
100
AcDbLine
 10
-110.89691308781308
 20
-30.24072577310416
 30
0.0
 11
-74.84308691218693
 21
-5.01927422689584
 31
0.0
  0
MTEXT
  5
86
330
7E
100
AcDbEntity
  8
0
 62
250
100
AcDbMText
 10
-96.02268144327604
 20
-13.123271728046731
 30
0.0
 40
5.0
 71
5
  1
%%c54
 50
34.974709719420474
  0
POINT
  5
87
330
7E
100
AcDbEntity
  8
Defpoints
100
AcDbPoint
 10
-92.87
 20
-17.630000000000003
 30
0.0
  0
POINT
  5
88
330
7E
100
AcDbEntity
  8
Defpoints
100
AcDbPoint
 10
-114.99393878958878
 20
-33.10679981244601
 30
0.0
  0
ENDBLK
  5
80
330
7E
100
AcDbEntity
  8
0
100
AcDbBlockEnd
  0
BLOCK
  5
8B
330
8A
100
AcDbEntity
  8
0
100
AcDbBlockBegin
  2
*D4
 70
1
 10
0.0
 20
0.0
 30
0.0
  3
*D4
  1

  0
INSERT
  5
8D
330
8A
100
AcDbEntity
  8
0
 62
250
100
AcDbBlockReference
  2
_CLOSEDFILLED
 10
102.56848578772626
 20
-130.56620118799563
 30
0.0
 41
5.0
 42
5.0
 50
136.66545868330124
  0
LINE
  5
8F
330
8A
100
AcDbEntity
  8
0
 62
250
100
AcDbLine
 10
107.66
 20
-135.37
 30
0.0
 11
106.20528165363606
 21
-133.99748605371303
 31
0.0
  0
MTEXT
  5
90
330
8A
100
AcDbEntity
  8
0
 62
250
100
AcDbMText
 10
93.40481369145947
 20
-118.48326582441727
 30
0.0
 40
5.0
 71
5
  1
R7
 50
316.66545868330127
  0
POINT
  5
91
330
8A
100
AcDbEntity
  8
Defpoints
100
AcDbPoint
 10
107.66
 20
-135.37
 30
0.0
  0
POINT
  5
92
330
8A
100
AcDbEntity
  8
Defpoints
100
AcDbPoint
 10
102.56848578772626
 20
-130.56620118799563
 30
0.0
  0
ENDBLK
  5
8C
330
8A
100
AcDbEntity
  8
0
100
AcDbBlockEnd
  0
BLOCK
  5
95
330
94
100
AcDbEntity
  8
0
100
AcDbBlockBegin
  2
*D5
 70
1
 10
0.0
 20
0.0
 30
0.0
  3
*D5
  1

  0
INSERT
  5
97
330
94
100
AcDbEntity
  8
0
 62
250
100
AcDbBlockReference
  2
_CLOSEDFILLED
 10
175.21242143512433
 20
-153.27117509018322
 30
0.0
 41
5.0
 42
5.0
 50
139.6860847674011
  0
INSERT
  5
99
330
94
100
AcDbEntity
  8
0
 62
250
100
AcDbBlockReference
  2
_CLOSEDFILLED
 10
185.88757856487587
 20
-162.32882490981697
 30
0.0
 41
5.0
 42
5.0
 50
319.6860847674011
  0
LINE
  5
9B
330
94
100
AcDbEntity
  8
0
 62
250
100
AcDbLine
 10
179.02497755289278
 20
-156.50605002576674
 30
0.0
 11
182.07502244710741
 21
-159.09394997423345
 31
0.0
  0
MTEXT
  5
9C
330
94
100
AcDbEntity
  8
0
 62
250
100
AcDbMText
 10
184.10836242914195
 20
-153.60618827045482
 30
0.0
 40
5.0
 71
5
  1
%%c14
 50
319.6860847674011
  0
POINT
  5
9D
330
94
100
AcDbEntity
  8
Defpoints
100
AcDbPoint
 10
180.5500000000001
 20
-157.8000000000001
 30
0.0
  0
POINT
  5
9E
330
94
100
AcDbEntity
  8
Defpoints
100
AcDbPoint
 10
175.21242143512433
 20
-153.27117509018322
 30
0.0
  0
ENDBLK
  5
96
330
94
100
AcDbEntity
  8
0
100
AcDbBlockEnd
  0
BLOCK
  5
A1
330
A0
100
AcDbEntity
  8
0
100
AcDbBlockBegin
  2
*D6
 70
1
 10
0.0
 20
0.0
 30
0.0
  3
*D6
  1

  0
LINE
  5
A3
330
A0
100
AcDbEntity
  8
0
 62
250
100
AcDbLine
 10
205.38448663310655
 20
38.255723339857774
 30
0.0
 11
187.6460795435494
 21
67.82034315860834
 31
0.0
  0
LINE
  5
A4
330
A0
100
AcDbEntity
  8
0
 62
250
100
AcDbLine
 10
253.91195966172995
 20
67.37160837022388
 30
0.0
 11
236.17355257217287
 21
96.93622818897447
 31
0.0
  0
INSERT
  5
A5
330
A0
100
AcDbEntity
  8
0
 62
250
100
AcDbBlockReference
  2
_CLOSEDFILLED
 10
188.6750554943997
 20
66.10534797127637
 30
0.0
 41
5.0
 42
5.0
 50
210.96323669094713
  0
INSERT
  5
A7
330
A0
100
AcDbEntity
  8
0
 62
250
100
AcDbBlockReference
  2
_CLOSEDFILLED
 10
237.20252852302315
 20
95.2212330016425
 30
0.0
 41
5.0
 42
5.0
 50
30.963236690947138
  0
LINE
  5
A9
330
A0
100
AcDbEntity
  8
0
 62
250
100
AcDbLine
 10
192.9625434627296
 20
68.67778784840205
 30
0.0
 11
202.22007208788665
 21
74.23219079364526
 31
0.0
  0
LINE
  5
AA
330
A0
100
AcDbEntity
  8
0
 62
250
100
AcDbLine
 10
223.65751192953616
 20
87.09439017927362
 30
0.0
 11
232.91504055469323
 21
92.64879312451683
 31
0.0
  0
MTEXT
  5
AB
330
A0
100
AcDbEntity
  8
0
 62
250
100
AcDbMText
 10
211.395328082436
 20
83.23578326745738
 30
0.0
 40
5.0
 71
5
  1
56,59
 50
30.963236690947138
  0
POINT
  5
AC
330
A0
100
AcDbEntity
  8
Defpoints
100
AcDbPoint
 10
188.6750554943997
 20
66.10534797127637
 30
0.0
  0
POINT
  5
AD
330
A0
100
AcDbEntity
  8
Defpoints
100
AcDbPoint
 10
205.8989746085317
 20
37.39822574619179
 30
0.0
  0
POINT
  5
AE
330
A0
100
AcDbEntity
  8
Defpoints
100
AcDbPoint
 10
254.4264476371551
 20
66.5141107765579
 30
0.0
  0
ENDBLK
  5
A2
330
A0
100
AcDbEntity
  8
0
100
AcDbBlockEnd
  0
BLOCK
  5
B1
330
B0
100
AcDbEntity
  8
0
100
AcDbBlockBegin
  2
*D7
 70
1
 10
0.0
 20
0.0
 30
0.0
  3
*D7
  1

  0
LINE
  5
B3
330
B0
100
AcDbEntity
  8
0
 62
250
100
AcDbLine
 10
122.49
 20
-62.88
 30
0.0
 11
122.49
 21
-45.06028038409539
 31
0.0
  0
LINE
  5
B4
330
B0
100
AcDbEntity
  8
0
 62
250
100
AcDbLine
 10
193.2
 20
-62.88
 30
0.0
 11
193.2
 21
-45.06028038409539
 31
0.0
  0
INSERT
  5
B5
330
B0
100
AcDbEntity
  8
0
 62
250
100
AcDbBlockReference
  2
_CLOSEDFILLED
 10
122.49
 20
-47.06028038409539
 30
0.0
 41
5.0
 42
5.0
 50
180.0
  0
INSERT
  5
B7
330
B0
100
AcDbEntity
  8
0
 62
250
100
AcDbBlockReference
  2
_CLOSEDFILLED
 10
193.2
 20
-47.06028038409539
 30
0.0
 41
5.0
 42
5.0
  0
LINE
  5
B9
330
B0
100
AcDbEntity
  8
0
 62
250
100
AcDbLine
 10
127.49
 20
-47.06028038409539
 30
0.0
 11
145.345
 21
-47.06028038409539
 31
0.0
  0
LINE
  5
BA
330
B0
100
AcDbEntity
  8
0
 62
250
100
AcDbLine
 10
170.345
 20
-47.06028038409539
 30
0.0
 11
188.2
 21
-47.06028038409539
 31
0.0
  0
MTEXT
  5
BB
330
B0
100
AcDbEntity
  8
0
 62
250
100
AcDbMText
 10
157.845
 20
-44.06028038409539
 30
0.0
 40
5.0
 71
5
  1
70,71
  0
POINT
  5
BC
330
B0
100
AcDbEntity
  8
Defpoints
100
AcDbPoint
 10
122.49
 20
-47.06028038409539
 30
0.0
  0
POINT
  5
BD
330
B0
100
AcDbEntity
  8
Defpoints
100
AcDbPoint
 10
122.49
 20
-63.88
 30
0.0
  0
POINT
  5
BE
330
B0
100
AcDbEntity
  8
Defpoints
100
AcDbPoint
 10
193.2
 20
-63.88
 30
0.0
  0
ENDBLK
  5
B2
330
B0
100
AcDbEntity
  8
0
100
AcDbBlockEnd
  0
BLOCK
  5
C1
330
C0
100
AcDbEntity
  8
0
100
AcDbBlockBegin
  2
*D8
 70
1
 10
0.0
 20
0.0
 30
0.0
  3
*D8
  1

  0
LINE
  5
C3
330
C0
100
AcDbEntity
  8
0
 62
250
100
AcDbLine
 10
-140.41734334497974
 20
-180.20392656878653
 30
0.0
 11
-160.55456228829914
 21
-130.78330291120383
 31
0.0
  0
LINE
  5
C4
330
C0
100
AcDbEntity
  8
0
 62
250
100
AcDbLine
 10
-1.1173433449797008
 20
-123.44392656878652
 30
0.0
 11
-21.254562288299084
 21
-74.02330291120386
 31
0.0
  0
INSERT
  5
C5
330
C0
100
AcDbEntity
  8
0
 62
250
100
AcDbBlockReference
  2
_CLOSEDFILLED
 10
-159.79987559833967
 20
-132.6354497736308
 30
0.0
 41
5.0
 42
5.0
 50
202.16922010926834
  0
INSERT
  5
C7
330
C0
100
AcDbEntity
  8
0
 62
250
100
AcDbBlockReference
  2
_CLOSEDFILLED
 10
-20.499875598339614
 20
-75.87544977363082
 30
0.0
 41
5.0
 42
5.0
 50
22.16922010926835
  0
LINE
  5
C9
330
C0
100
AcDbEntity
  8
0
 62
250
100
AcDbLine
 10
-155.16950844227227
 20
-130.74873304873213
 30
0.0
 11
-104.04097706654184
 21
-109.91559994832684
 31
0.0
  0
LINE
  5
CA
330
C0
100
AcDbEntity
  8
0
 62
250
100
AcDbLine
 10
-76.25877413013745
 20
-98.5952995989348
 30
0.0
 11
-25.130242754407007
 21
-77.7621664985295
 31
0.0
  0
MTEXT
  5
CB
330
C0
100
AcDbEntity
  8
0
 62
250
100
AcDbMText
 10
-91.28190563327885
 20
-101.47722947999037
 30
0.0
 40
5.0
 71
5
  1
150,42
 50
22.16922010926835
  0
POINT
  5
CC
330
C0
100
AcDbEntity
  8
Defpoints
100
AcDbPoint
 10
-159.79987559833967
 20
-132.6354497736308
 30
0.0
  0
POINT
  5
CD
330
C0
100
AcDbEntity
  8
Defpoints
100
AcDbPoint
 10
-140.04000000000002
 20
-181.13
 30
0.0
  0
POINT
  5
CE
330
C0
100
AcDbEntity
  8
Defpoints
100
AcDbPoint
 10
-0.7399999999999665
 20
-124.37
 30
0.0
  0
ENDBLK
  5
C2
330
C0
100
AcDbEntity
  8
0
100
AcDbBlockEnd
  0
BLOCK
  5
D1
330
D0
100
AcDbEntity
  8
0
100
AcDbBlockBegin
  2
*D9
 70
1
 10
0.0
 20
0.0
 30
0.0
  3
*D9
  1

  0
INSERT
  5
D3
330
D0
100
AcDbEntity
  8
0
 62
250
100
AcDbBlockReference
  2
_CLOSEDFILLED
 10
58.0302321693938
 20
-40.52502805911478
 30
0.0
 41
5.0
 42
5.0
 50
61.150090097853656
  0
LINE
  5
D5
330
D0
100
AcDbEntity
  8
0
 62
250
100
AcDbLine
 10
24.26854929515973
 20
-101.8107837213931
 30
0.0
 11
55.617647994030015
 21
-44.904461538091745
 31
0.0
  0
MTEXT
  5
D6
330
D0
100
AcDbEntity
  8
0
 62
250
100
AcDbMText
 10
33.70435381801593
 20
-67.0665127921355
 30
0.0
 40
5.0
 71
5
  1
R69,97
 50
61.150090097853656
  0
POINT
  5
D7
330
D0
100
AcDbEntity
  8
Defpoints
100
AcDbPoint
 10
24.26854929515973
 20
-101.8107837213931
 30
0.0
  0
POINT
  5
D8
330
D0
100
AcDbEntity
  8
Defpoints
100
AcDbPoint
 10
58.0302321693938
 20
-40.52502805911478
 30
0.0
  0
ENDBLK
  5
D2
330
D0
100
AcDbEntity
  8
0
100
AcDbBlockEnd
  0
ENDSEC
  0
SECTION
  2
ENTITIES
  0
LINE
  5
3A
330
17
100
AcDbEntity
  8
0
  6
CONTINUOUS
370
80
420
0
100
AcDbLine
 10
-37.35
 20
12.0
 30
0.0
 11
-8.35
 21
24.8
 31
0.0
  0
LINE
  5
3B
330
17
100
AcDbEntity
  8
0
  6
CENTER
370
40
420
0
100
AcDbLine
 10
78.56
 20
-33.42
 30
0.0
 11
144.55
 21
-33.42
 31
0.0
  0
LINE
  5
3C
330
17
100
AcDbEntity
  8
0
  6
CENTER
370
40
420
0
100
AcDbLine
 10
144.55
 20
-33.42
 30
0.0
 11
144.55
 21
-0.87
 31
0.0
  0
LINE
  5
3D
330
17
100
AcDbEntity
  8
0
  6
CENTER
370
40
420
0
100
AcDbLine
 10
144.55
 20
-0.87
 30
0.0
 11
78.56
 21
-0.87
 31
0.0
  0
LINE
  5
3E
330
17
100
AcDbEntity
  8
0
  6
CENTER
370
40
420
0
100
AcDbLine
 10
78.56
 20
-0.87
 30
0.0
 11
78.56
 21
-33.42
 31
0.0
  0
LINE
  5
3F
330
17
100
AcDbEntity
  8
0
  6
CONTINUOUS
370
80
420
0
100
AcDbLine
 10
122.49
 20
-102.99
 30
0.0
 11
193.2
 21
-102.99
 31
0.0
  0
LINE
  5
40
330
17
100
AcDbEntity
  8
0
  6
CONTINUOUS
370
80
420
0
100
AcDbLine
 10
193.2
 20
-102.99
 30
0.0
 11
199.2
 21
-96.99
 31
0.0
  0
LINE
  5
41
330
17
100
AcDbEntity
  8
0
  6
CONTINUOUS
370
80
420
0
100
AcDbLine
 10
199.2
 20
-96.99
 30
0.0
 11
199.2
 21
-69.88
 31
0.0
  0
LINE
  5
42
330
17
100
AcDbEntity
  8
0
  6
CONTINUOUS
370
80
420
0
100
AcDbLine
 10
199.2
 20
-69.88
 30
0.0
 11
193.2
 21
-63.88
 31
0.0
  0
LINE
  5
43
330
17
100
AcDbEntity
  8
0
  6
CONTINUOUS
370
80
420
0
100
AcDbLine
 10
193.2
 20
-63.88
 30
0.0
 11
122.49
 21
-63.88
 31
0.0
  0
LINE
  5
44
330
17
100
AcDbEntity
  8
0
  6
CONTINUOUS
370
80
420
0
100
AcDbLine
 10
122.49
 20
-63.88
 30
0.0
 11
116.49
 21
-69.88
 31
0.0
  0
LINE
  5
45
330
17
100
AcDbEntity
  8
0
  6
CONTINUOUS
370
80
420
0
100
AcDbLine
 10
116.49
 20
-69.88
 30
0.0
 11
116.49
 21
-96.99
 31
0.0
  0
LINE
  5
46
330
17
100
AcDbEntity
  8
0
  6
CONTINUOUS
370
80
420
0
100
AcDbLine
 10
116.49
 20
-96.99
 30
0.0
 11
122.49
 21
-102.99
 31
0.0
  0
LINE
  5
47
330
17
100
AcDbEntity
  8
0
  6
THIN
370
40
420
0
100
AcDbLine
 10
107.66
 20
-164.8
 30
0.0
 11
180.55
 21
-164.8
 31
0.0
  0
LINE
  5
48
330
17
100
AcDbEntity
  8
0
  6
THIN
370
40
420
0
100
AcDbLine
 10
187.55
 20
-157.8
 30
0.0
 11
187.55
 21
-135.37
 31
0.0
  0
LINE
  5
49
330
17
100
AcDbEntity
  8
0
  6
THIN
370
40
420
0
100
AcDbLine
 10
180.55
 20
-128.37
 30
0.0
 11
107.66
 21
-128.37
 31
0.0
  0
LINE
  5
4A
330
17
100
AcDbEntity
  8
0
  6
THIN
370
40
420
0
100
AcDbLine
 10
100.66
 20
-135.37
 30
0.0
 11
100.66
 21
-157.8
 31
0.0
  0
LINE
  5
4B
330
17
100
AcDbEntity
  8
0
  6
CONTINUOUS
370
80
420
0
100
AcDbLine
 10
274.967451136966
 20
-22.71993415908027
 30
0.0
 11
297.1131136829018
 21
29.35904461399861
 31
0.0
  0
LINE
  5
4C
330
17
100
AcDbEntity
  8
0
  6
CONTINUOUS
370
80
420
0
100
AcDbLine
 10
297.1131136829018
 20
29.35904461399861
 30
0.0
 11
254.4264476371551
 21
66.5141107765579
 31
0.0
  0
LINE
  5
4D
330
17
100
AcDbEntity
  8
0
  6
CONTINUOUS
370
80
420
0
100
AcDbLine
 10
254.4264476371551
 20
66.5141107765579
 30
0.0
 11
205.8989746085317
 21
37.39822574619179
 31
0.0
  0
LINE
  5
4E
330
17
100
AcDbEntity
  8
0
  6
CONTINUOUS
370
80
420
0
100
AcDbLine
 10
205.8989746085317
 20
37.39822574619179
 30
0.0
 11
218.5940129344454
 21
-17.75144697766802
 31
0.0
  0
LINE
  5
4F
330
17
100
AcDbEntity
  8
0
  6
CONTINUOUS
370
80
420
0
100
AcDbLine
 10
218.5940129344454
 20
-17.75144697766802
 30
0.0
 11
274.967451136966
 21
-22.71993415908027
 31
0.0
  0
CIRCLE
  5
50
330
17
100
AcDbEntity
  8
0
  6
CONTINUOUS
370
80
420
0
100
AcDbCircle
 10
38.06
 20
3.44
 30
0.0
 40
3.01
  0
CIRCLE
  5
51
330
17
100
AcDbEntity
  8
0
  6
HIDDEN
370
40
420
0
100
AcDbCircle
 10
-92.87
 20
-17.63
 30
0.0
 40
27.0
  0
ARC
  5
52
330
17
100
AcDbEntity
  8
0
  6
HIDDEN
370
40
420
0
100
AcDbCircle
 10
24.26854929515973
 20
-101.8107837213931
 30
0.0
 40
69.96995839356222
100
AcDbArc
 50
30.52694239336232
 51
133.122334741213
  0
ARC
  5
53
330
17
100
AcDbEntity
  8
0
  6
THIN
370
40
420
0
100
AcDbCircle
 10
107.66
 20
-157.8
 30
0.0
 40
6.999999999999986
100
AcDbArc
 50
180.0
 51
269.9999999999998
  0
ARC
  5
54
330
17
100
AcDbEntity
  8
0
  6
THIN
370
40
420
0
100
AcDbCircle
 10
180.5500000000001
 20
-157.8000000000001
 30
0.0
 40
6.999999999999943
100
AcDbArc
 50
269.9999999999992
 51
0.0
  0
ARC
  5
55
330
17
100
AcDbEntity
  8
0
  6
THIN
370
40
420
0
100
AcDbCircle
 10
180.5500000000001
 20
-135.3699999999999
 30
0.0
 40
6.999999999999943
100
AcDbArc
 50
359.9999999999997
 51
90.00000000000048
  0
ARC
  5
56
330
17
100
AcDbEntity
  8
0
  6
THIN
370
40
420
0
100
AcDbCircle
 10
107.66
 20
-135.37
 30
0.0
 40
7.0
100
AcDbArc
 50
90.0
 51
180.0
  0
ELLIPSE
  5
57
330
17
100
AcDbEntity
  8
0
  6
CONTINUOUS
370
80
420
0
100
AcDbEllipse
 10
-70.39
 20
-152.75
 30
0.0
 11
69.65000000000003
 21
28.379999999999995
 31
0.0
 40
0.4465220115120054
 41
0.0
 42
6.283185307179586
  0
SPLINE
  5
58
330
17
100
AcDbEntity
  8
0
  6
THIN
370
40
420
0
100
AcDbSpline
 70
0
 71
3
 72
0
 73
0
 74
120
 11
4.55
 21
25.0
 31
0.0
 11
4.787520654677223
 21
24.91322215158786
 31
0.0
 11
5.022434832860381
 21
24.82441561703747
 31
0.0
 11
5.252200238157093
 21
24.73160166319616
 31
0.0
 11
5.47440135405124
 21
24.63290023287404
 31
0.0
 11
5.686808921936231
 21
24.52657623809158
 31
0.0
 11
5.887434832860381
 21
24.41108228370414
 31
0.0
 11
6.074581081367462
 21
24.28509676940588
 31
0.0
 11
6.246881576026388
 21
24.14755643191545
 31
0.0
 11
6.403335777136044
 21
23.99768252604677
 31
0.0
 11
6.543333333333334
 21
23.835
 31
0.0
 11
6.666669110469376
 21
23.65934919271344
 31
0.0
 11
6.773548242693054
 21
23.47088976524878
 31
0.0
 11
6.864581081367462
 21
23.27009676940587
 31
0.0
 11
6.940768166193714
 21
23.05774895037081
 31
0.0
 11
7.003475588602897
 21
22.83490957142491
 31
0.0
 11
7.05440135405124
 21
22.60290023287403
 31
0.0
 11
7.095533571490427
 21
22.36326832986283
 31
0.0
 11
7.129101499527048
 21
22.11774895037081
 31
0.0
 11
7.157520654677223
 21
21.86822215158785
 31
0.0
 11
7.183333333333334
 21
21.61666666666667
 31
0.0
 11
7.209146011989444
 21
21.36511118174548
 31
0.0
 11
7.23756516713962
 21
21.11558438296253
 31
0.0
 11
7.271133095176241
 21
20.8700650034705
 31
0.0
 11
7.312265312615427
 21
20.6304331004593
 31
0.0
 11
7.36319107806377
 21
20.39842376190842
 31
0.0
 11
7.425898500472953
 21
20.17558438296253
 31
0.0
 11
7.502085585299205
 21
19.96323656392746
 31
0.0
 11
7.593118423973614
 21
19.76244356808455
 31
0.0
 11
7.699997556197292
 21
19.57398414061989
 31
0.0
 11
7.823333333333335
 21
19.39833333333333
 31
0.0
 11
7.963330889530624
 21
19.23565080728656
 31
0.0
 11
8.119785090640281
 21
19.08577690141788
 31
0.0
 11
8.292085585299208
 21
18.94823656392746
 31
0.0
 11
8.479231833806288
 21
18.82225104962919
 31
0.0
 11
8.67985774473044
 21
18.70675709524175
 31
0.0
 11
8.89226531261543
 21
18.60043310045929
 31
0.0
 11
9.114466428509578
 21
18.50173167013717
 31
0.0
 11
9.34423183380629
 21
18.40891771629586
 31
0.0
 11
9.57914601198945
 21
18.32011118174548
 31
0.0
 11
9.816666666666672
 21
18.23333333333333
 31
0.0
 11
10.0541873213439
 21
18.14655548492118
 31
0.0
 11
10.28910149952705
 21
18.0577489503708
 31
0.0
 11
10.51886690482377
 21
17.96493499652949
 31
0.0
 11
10.74106802071791
 21
17.86623356620737
 31
0.0
 11
10.9534755886029
 21
17.75990957142491
 31
0.0
 11
11.15410149952705
 21
17.64441561703747
 31
0.0
 11
11.34124774803413
 21
17.5184301027392
 31
0.0
 11
11.51354824269306
 21
17.38088976524877
 31
0.0
 11
11.67000244380272
 21
17.2310158593801
 31
0.0
 11
11.81000000000001
 21
17.06833333333333
 31
0.0
 11
11.93333577713605
 21
16.89268252604676
 31
0.0
 11
12.04021490935972
 21
16.7042230985821
 31
0.0
 11
12.13124774803413
 21
16.50343010273919
 31
0.0
 11
12.20743483286039
 21
16.29108228370413
 31
0.0
 11
12.27014225526957
 21
16.06824290475824
 31
0.0
 11
12.32106802071791
 21
15.83623356620736
 31
0.0
 11
12.3622002381571
 21
15.59660166319615
 31
0.0
 11
12.39576816619372
 21
15.35108228370412
 31
0.0
 11
12.42418732134389
 21
15.10155548492117
 31
0.0
 11
12.45
 21
14.84999999999999
 31
0.0
 11
12.47581267865611
 21
14.5984445150788
 31
0.0
 11
12.50423183380629
 21
14.34891771629585
 31
0.0
 11
12.53779976184291
 21
14.10339833680382
 31
0.0
 11
12.5789319792821
 21
13.86376643379262
 31
0.0
 11
12.62985774473044
 21
13.63175709524174
 31
0.0
 11
12.69256516713962
 21
13.40891771629585
 31
0.0
 11
12.76875225196588
 21
13.19656989726078
 31
0.0
 11
12.85978509064029
 21
12.99577690141787
 31
0.0
 11
12.96666422286397
 21
12.80731747395321
 31
0.0
 11
13.09000000000001
 21
12.63166666666665
 31
0.0
 11
13.2299975561973
 21
12.46898414061988
 31
0.0
 11
13.38645175730696
 21
12.31911023475121
 31
0.0
 11
13.55875225196588
 21
12.18156989726078
 31
0.0
 11
13.74589850047297
 21
12.05558438296252
 31
0.0
 11
13.94652441139712
 21
11.94009042857508
 31
0.0
 11
14.15893197928211
 21
11.83376643379262
 31
0.0
 11
14.38113309517626
 21
11.7350650034705
 31
0.0
 11
14.61089850047297
 21
11.64225104962918
 31
0.0
 11
14.84581267865613
 21
11.5534445150788
 31
0.0
 11
15.08333333333335
 21
11.46666666666666
 31
0.0
 11
15.32085398801057
 21
11.37988881825451
 31
0.0
 11
15.55576816619373
 21
11.29108228370413
 31
0.0
 11
15.78553357149045
 21
11.19826832986282
 31
0.0
 11
16.00773468738459
 21
11.09956689954069
 31
0.0
 11
16.22014225526958
 21
10.99324290475824
 31
0.0
 11
16.42076816619373
 21
10.87774895037079
 31
0.0
 11
16.60791441470081
 21
10.75176343607253
 31
0.0
 11
16.78021490935974
 21
10.6142230985821
 31
0.0
 11
16.93666911046939
 21
10.46434919271342
 31
0.0
 11
17.07666666666668
 21
10.30166666666665
 31
0.0
 11
17.20000244380272
 21
10.12601585938009
 31
0.0
 11
17.3068815760264
 21
9.937556431915427
 31
0.0
 11
17.3979144147008
 21
9.73676343607252
 31
0.0
 11
17.47410149952706
 21
9.524415617037448
 31
0.0
 11
17.53680892193624
 21
9.30157623809156
 31
0.0
 11
17.58773468738458
 21
9.069566899540675
 31
0.0
 11
17.62886690482376
 21
8.82993499652947
 31
0.0
 11
17.66243483286038
 21
8.584415617037443
 31
0.0
 11
17.69085398801056
 21
8.334888818254495
 31
0.0
 11
17.71666666666667
 21
8.083333333333307
 31
0.0
 11
17.74247934532278
 21
7.831777848412116
 31
0.0
 11
17.77089850047296
 21
7.582251049629168
 31
0.0
 11
17.80446642850958
 21
7.336731670137144
 31
0.0
 11
17.84559864594877
 21
7.097099767125936
 31
0.0
 11
17.89652441139711
 21
6.865090428575058
 31
0.0
 11
17.95923183380629
 21
6.642251049629166
 31
0.0
 11
18.03541891863255
 21
6.4299032305941
 31
0.0
 11
18.12645175730696
 21
6.229110234751197
 31
0.0
 11
18.23333088953064
 21
6.040650807286536
 31
0.0
 11
18.35666666666668
 21
5.864999999999977
 31
0.0
 11
18.49666422286398
 21
5.702317473953208
 31
0.0
 11
18.65311842397363
 21
5.552443568084531
 31
0.0
 11
18.82541891863256
 21
5.414903230594106
 31
0.0
 11
19.01256516713964
 21
5.288917716295842
 31
0.0
 11
19.2131910780638
 21
5.173423761908403
 31
0.0
 11
19.42559864594879
 21
5.067099767125949
 31
0.0
 11
19.64779976184294
 21
4.968398336803823
 31
0.0
 11
19.87756516713965
 21
4.875584382962511
 31
0.0
 11
20.35
 21
4.7
 31
0.0
  0
DIMENSION
  5
59
330
17
100
AcDbEntity
  8
0
370
40
420
0
100
AcDbDimension
  2
*D1
  3
MP_GOST_DEFAULT
 10
-50.21732331659686
 20
12.0
 30
0.0
 11
-53.21732331659686
 21
18.4
 31
0.0
 70
160
 71
5
  1
<>
100
AcDbAlignedDimension
 13
-37.35
 23
12.0
 33
0.0
 14
-8.35
 24
24.8
 34
0.0
 50
90.0
100
AcDbRotatedDimension
1001
ACAD
1000
DSTYLE
1002
{
1070
140
1040
5.0
1070
41
1040
5.0
1070
271
1070
2
1070
147
1040
3.0
1070
44
1040
2.0
1070
46
1040
0.0
1070
176
1070
250
1070
177
1070
250
1070
178
1070
250
1070
77
1070
1
1070
279
1070
2
1002
}
  0
DIMENSION
  5
6D
330
17
100
AcDbEntity
  8
0
370
40
420
0
100
AcDbDimension
  2
*D2
  3
MP_GOST_DEFAULT
 10
-37.35
 20
-6.847132241336308
 30
0.0
 11
-22.85
 21
-9.847132241336308
 31
0.0
 70
160
 71
5
  1
<>
100
AcDbAlignedDimension
 13
-37.35
 23
12.0
 33
0.0
 14
-8.35
 24
24.8
 34
0.0
 50
0.0
100
AcDbRotatedDimension
1001
ACAD
1000
DSTYLE
1002
{
1070
140
1040
5.0
1070
41
1040
5.0
1070
271
1070
2
1070
147
1040
3.0
1070
44
1040
2.0
1070
46
1040
0.0
1070
176
1070
250
1070
177
1070
250
1070
178
1070
250
1070
77
1070
1
1070
279
1070
2
1002
}
  0
DIMENSION
  5
7D
330
17
100
AcDbEntity
  8
0
370
40
420
0
100
AcDbDimension
  2
*D3
  3
MP_GOST_DEFAULT_DIAMETER
 10
-70.74606121041123
 20
-2.1532001875539883
 30
0.0
 11
-96.02268144327604
 21
-13.123271728046731
 31
0.0
 70
35
 71
5
  1
<>
100
AcDbDiametricDimension
 15
-114.99393878958878
 25
-33.10679981244601
 35
0.0
1001
ACAD
1000
DSTYLE
1002
{
1070
140
1040
5.0
1070
41
1040
5.0
1070
271
1070
2
1070
147
1040
3.0
1070
44
1040
2.0
1070
46
1040
0.0
1070
176
1070
250
1070
177
1070
250
1070
178
1070
250
1070
174
1070
1
1070
289
1070
0
1070
279
1070
0
1070
73
1070
0
1070
74
1070
0
1070
77
1070
1
1002
}
  0
DIMENSION
  5
89
330
17
100
AcDbEntity
  8
0
370
40
420
0
100
AcDbDimension
  2
*D4
  3
MP_GOST_DEFAULT
 10
107.66
 20
-135.37
 30
0.0
 11
89.63040033917032
 21
-122.48374127691807
 31
0.0
 70
164
 71
5
  1
<>
100
AcDbRadialDimension
 15
102.56848578772626
 25
-130.56620118799563
 35
0.0
1001
ACAD
1000
DSTYLE
1002
{
1070
140
1040
5.0
1070
41
1040
5.0
1070
271
1070
2
1070
147
1040
3.0
1070
44
1040
2.0
1070
46
1040
7.0
1070
176
1070
250
1070
177
1070
250
1070
178
1070
250
1070
77
1070
1
1002
}
  0
DIMENSION
  5
93
330
17
100
AcDbEntity
  8
0
370
40
420
0
100
AcDbDimension
  2
*D5
  3
MP_GOST_DEFAULT_DIAMETER
 10
185.88757856487587
 20
-162.32882490981697
 30
0.0
 11
184.10836242914195
 21
-153.60618827045482
 31
0.0
 70
35
 71
5
  1
<>
100
AcDbDiametricDimension
 15
175.21242143512433
 25
-153.27117509018322
 35
0.0
1001
ACAD
1000
DSTYLE
1002
{
1070
140
1040
5.0
1070
41
1040
5.0
1070
271
1070
2
1070
147
1040
3.0
1070
44
1040
2.0
1070
46
1040
0.0
1070
176
1070
250
1070
177
1070
250
1070
178
1070
250
1070
174
1070
1
1070
289
1070
0
1070
279
1070
0
1070
73
1070
0
1070
74
1070
0
1070
77
1070
1
1002
}
  0
DIMENSION
  5
9F
330
17
100
AcDbEntity
  8
0
370
40
420
0
100
AcDbDimension
  2
*D6
  3
MP_GOST_DEFAULT
 10
188.6750554943997
 20
66.10534797127637
 30
0.0
 11
211.395328082436
 21
83.23578326745738
 31
0.0
 70
160
 71
5
  1
<>
100
AcDbAlignedDimension
 13
205.8989746085317
 23
37.39822574619179
 33
0.0
 14
254.4264476371551
 24
66.5141107765579
 34
0.0
 50
30.963236690947138
100
AcDbRotatedDimension
1001
ACAD
1000
DSTYLE
1002
{
1070
140
1040
5.0
1070
41
1040
5.0
1070
271
1070
2
1070
147
1040
3.0
1070
44
1040
2.0
1070
46
1040
0.0
1070
176
1070
250
1070
177
1070
250
1070
178
1070
250
1070
77
1070
1
1070
279
1070
2
1002
}
  0
DIMENSION
  5
AF
330
17
100
AcDbEntity
  8
0
370
40
420
0
100
AcDbDimension
  2
*D7
  3
MP_GOST_DEFAULT
 10
122.49
 20
-47.06028038409539
 30
0.0
 11
157.845
 21
-44.06028038409539
 31
0.0
 70
160
 71
5
  1
<>
100
AcDbAlignedDimension
 13
122.49
 23
-63.88
 33
0.0
 14
193.2
 24
-63.88
 34
0.0
 50
0.0
100
AcDbRotatedDimension
1001
ACAD
1000
DSTYLE
1002
{
1070
140
1040
5.0
1070
41
1040
5.0
1070
271
1070
2
1070
147
1040
3.0
1070
44
1040
2.0
1070
46
1040
0.0
1070
176
1070
250
1070
177
1070
250
1070
178
1070
250
1070
77
1070
1
1070
279
1070
2
1002
}
  0
DIMENSION
  5
BF
330
17
100
AcDbEntity
  8
0
370
40
420
0
100
AcDbDimension
  2
*D8
  3
MP_GOST_DEFAULT
 10
-159.79987559833967
 20
-132.6354497736308
 30
0.0
 11
-91.28190563327885
 21
-101.47722947999037
 31
0.0
 70
160
 71
5
  1
<>
100
AcDbAlignedDimension
 13
-140.04000000000002
 23
-181.13
 33
0.0
 14
-0.7399999999999665
 24
-124.37
 34
0.0
 50
22.16922010926835
100
AcDbRotatedDimension
1001
ACAD
1000
DSTYLE
1002
{
1070
140
1040
5.0
1070
41
1040
5.0
1070
271
1070
2
1070
147
1040
3.0
1070
44
1040
2.0
1070
46
1040
0.0
1070
176
1070
250
1070
177
1070
250
1070
178
1070
250
1070
77
1070
1
1070
279
1070
2
1002
}
  0
DIMENSION
  5
CF
330
17
100
AcDbEntity
  8
0
370
40
420
0
100
AcDbDimension
  2
*D9
  3
MP_GOST_DEFAULT
 10
24.26854929515973
 20
-101.8107837213931
 30
0.0
 11
38.52173064489059
 21
-69.72035538503566
 31
0.0
 70
164
 71
5
  1
<>
100
AcDbRadialDimension
 15
58.0302321693938
 25
-40.52502805911478
 35
0.0
1001
ACAD
1000
DSTYLE
1002
{
1070
140
1040
5.0
1070
41
1040
5.0
1070
271
1070
2
1070
147
1040
3.0
1070
44
1040
2.0
1070
46
1040
0.0
1070
176
1070
250
1070
177
1070
250
1070
178
1070
250
1070
77
1070
1
1002
}
  0
ENDSEC
  0
SECTION
  2
OBJECTS
  0
DICTIONARY
  5
A
330
0
100
AcDbDictionary
281
1
  3
ACAD_COLOR
350
B
  3
ACAD_GROUP
350
C
  3
ACAD_LAYOUT
350
D
  3
ACAD_MATERIAL
350
E
  3
ACAD_MLEADERSTYLE
350
F
  3
ACAD_MLINESTYLE
350
10
  3
ACAD_PLOTSETTINGS
350
11
  3
ACAD_PLOTSTYLENAME
350
12
  3
ACAD_SCALELIST
350
14
  3
ACAD_TABLESTYLE
350
15
  3
ACAD_VISUALSTYLE
350
16
  3
EZDXF_META
350
2D
  0
DICTIONARY
  5
B
330
A
100
AcDbDictionary
281
1
  0
DICTIONARY
  5
C
330
A
100
AcDbDictionary
281
1
  0
DICTIONARY
  5
D
330
A
100
AcDbDictionary
281
1
  3
Model
350
1A
  3
Layout1
350
1E
  0
DICTIONARY
  5
E
330
A
100
AcDbDictionary
281
1
  3
ByBlock
350
1F
  3
ByLayer
350
20
  3
Global
350
21
  0
DICTIONARY
  5
F
330
A
100
AcDbDictionary
281
1
  3
Standard
350
2C
  0
DICTIONARY
  5
10
330
A
100
AcDbDictionary
281
1
  3
Standard
350
22
  0
DICTIONARY
  5
11
330
A
100
AcDbDictionary
281
1
  0
ACDBDICTIONARYWDFLT
  5
12
330
A
100
AcDbDictionary
281
1
  3
Normal
350
13
100
AcDbDictionaryWithDefault
340
13
  0
ACDBPLACEHOLDER
  5
13
330
12
  0
DICTIONARY
  5
14
330
A
100
AcDbDictionary
281
1
  0
DICTIONARY
  5
15
330
A
100
AcDbDictionary
281
1
  0
DICTIONARY
  5
16
330
A
100
AcDbDictionary
281
1
  0
LAYOUT
  5
1A
330
D
100
AcDbPlotSettings
  1

  4
A3
  6

 40
7.5
 41
20.0
 42
7.5
 43
20.0
 44
420.0
 45
297.0
 46
0.0
 47
0.0
 48
0.0
 49
0.0
140
0.0
141
0.0
142
1.0
143
1.0
 70
1024
 72
1
 73
0
 74
5
  7

 75
16
 76
0
 77
2
 78
300
147
1.0
148
0.0
149
0.0
100
AcDbLayout
  1
Model
 70
1
 71
0
 10
0.0
 20
0.0
 11
420.0
 21
297.0
 12
0.0
 22
0.0
 32
0.0
 14
1e+20
 24
1e+20
 34
1e+20
 15
-1e+20
 25
-1e+20
 35
-1e+20
146
0.0
 13
0.0
 23
0.0
 33
0.0
 16
1.0
 26
0.0
 36
0.0
 17
0.0
 27
1.0
 37
0.0
 76
1
330
17
  0
LAYOUT
  5
1E
330
D
100
AcDbPlotSettings
  1

  4
A3
  6

 40
7.5
 41
20.0
 42
7.5
 43
20.0
 44
420.0
 45
297.0
 46
0.0
 47
0.0
 48
0.0
 49
0.0
140
0.0
141
0.0
142
1.0
143
1.0
 70
0
 72
1
 73
0
 74
5
  7

 75
16
 76
0
 77
2
 78
300
147
1.0
148
0.0
149
0.0
100
AcDbLayout
  1
Layout1
 70
1
 71
1
 10
0.0
 20
0.0
 11
420.0
 21
297.0
 12
0.0
 22
0.0
 32
0.0
 14
1e+20
 24
1e+20
 34
1e+20
 15
-1e+20
 25
-1e+20
 35
-1e+20
146
0.0
 13
0.0
 23
0.0
 33
0.0
 16
1.0
 26
0.0
 36
0.0
 17
0.0
 27
1.0
 37
0.0
 76
1
330
1B
  0
MATERIAL
  5
1F
102
{ACAD_REACTORS
330
E
102
}
330
E
100
AcDbMaterial
  1
ByBlock
  2

 70
0
 40
1.0
 71
1
 41
1.0
 91
-1023410177
 42
1.0
 72
1
  3

 73
1
 74
1
 75
1
 44
0.5
 73
0
 45
1.0
 46
1.0
 77
1
  4

 78
1
 79
1
170
1
 48
1.0
171
1
  6

172
1
173
1
174
1
140
1.0
141
1.0
175
1
  7

176
1
177
1
178
1
143
1.0
179
1
  8

270
1
271
1
272
1
145
1.0
146
1.0
273
1
  9

274
1
275
1
276
1
 42
1.0
 72
1
  3

 73
1
 74
1
 75
1
 94
63
  0
MATERIAL
  5
20
102
{ACAD_REACTORS
330
E
102
}
330
E
100
AcDbMaterial
  1
ByLayer
  2

 70
0
 40
1.0
 71
1
 41
1.0
 91
-1023410177
 42
1.0
 72
1
  3

 73
1
 74
1
 75
1
 44
0.5
 73
0
 45
1.0
 46
1.0
 77
1
  4

 78
1
 79
1
170
1
 48
1.0
171
1
  6

172
1
173
1
174
1
140
1.0
141
1.0
175
1
  7

176
1
177
1
178
1
143
1.0
179
1
  8

270
1
271
1
272
1
145
1.0
146
1.0
273
1
  9

274
1
275
1
276
1
 42
1.0
 72
1
  3

 73
1
 74
1
 75
1
 94
63
  0
MATERIAL
  5
21
102
{ACAD_REACTORS
330
E
102
}
330
E
100
AcDbMaterial
  1
Global
  2

 70
0
 40
1.0
 71
1
 41
1.0
 91
-1023410177
 42
1.0
 72
1
  3

 73
1
 74
1
 75
1
 44
0.5
 73
0
 45
1.0
 46
1.0
 77
1
  4

 78
1
 79
1
170
1
 48
1.0
171
1
  6

172
1
173
1
174
1
140
1.0
141
1.0
175
1
  7

176
1
177
1
178
1
143
1.0
179
1
  8

270
1
271
1
272
1
145
1.0
146
1.0
273
1
  9

274
1
275
1
276
1
 42
1.0
 72
1
  3

 73
1
 74
1
 75
1
 94
63
  0
MLINESTYLE
  5
22
102
{ACAD_REACTORS
330
10
102
}
330
10
100
AcDbMlineStyle
  2
Standard
 70
0
  3

 62
256
 51
90.0
 52
90.0
 71
2
 49
0.5
 62
256
  6
BYLAYER
 49
-0.5
 62
256
  6
BYLAYER
  0
MLEADERSTYLE
  5
2C
102
{ACAD_REACTORS
330
F
102
}
330
F
100
AcDbMLeaderStyle
179
2
170
2
171
1
172
0
 90
2
 40
0.0
 41
0.0
173
1
 91
-1056964608
 92
-2
290
1
 42
2.0
291
1
 43
8.0
  3
Standard
 44
4.0
300

342
29
174
1
175
1
176
0
178
1
 93
-1056964608
 45
4.0
292
0
297
0
 46
4.0
 94
-1056964608
 47
1.0
 49
1.0
140
1.0
294
1
141
0.0
177
0
142
1.0
295
0
296
0
143
3.75
271
0
272
9
273
9
  0
DICTIONARY
  5
2D
330
A
100
AcDbDictionary
280
1
281
1
  3
CREATED_BY_EZDXF
350
2E
  3
WRITTEN_BY_EZDXF
350
DB
  0
DICTIONARYVAR
  5
2E
330
2D
100
DictionaryVariables
280
0
  1
1.4.3 @ 2026-04-30T21:22:01.531958+00:00
  0
DICTIONARYVAR
  5
DB
330
2D
100
DictionaryVariables
280
0
  1
1.4.3 @ 2026-04-30T21:22:01.558644+00:00
  0
ENDSEC
  0
EOF
